<?xml version="1.0" encoding="UTF-8"?>
<svg id="_Слой_1" data-name="Слой 1" xmlns="http://www.w3.org/2000/svg" viewBox="0 0 595.28 841.89">
  <defs>
    <style>
      .cls-1 {
        fill: #895bfc;
      }
    </style>
  </defs>
  <path class="cls-1" d="M248.35,427.22c51.8-23.24,46.33-76.71,46.33-76.71-5.32-97.82-85.82-98.43-87.8-98.43H21.71v364.71l190.18,2.73s88.25-2.89,96.15-89.92c7.9-87.04-59.7-102.38-59.7-102.38ZM93.87,314.06h74.89c27.04,0,50.58,19.9,53.16,46.78,0,.3.15.76.15,1.22.91,11.7-6.53,20.81-15.34,27.34-11.39,8.66-25.67,12.61-39.95,12.61h-72.91v-87.95ZM219.33,546.91c-12.61,9.72-28.56,14.28-44.51,14.28h-80.96v-99.04h83.24c29.92,0,56.35,22.33,59.09,52.56.15.46.15.91.15,1.52,1.06,13.06-7.29,23.39-17.01,30.68Z"/>
  <rect class="cls-1" x="376.04" y="282.46" width="151.9" height="35.71"/>
  <path class="cls-1" d="M568.4,421.14c-37.22-97.06-149.01-70.03-149.01-70.03-109.06,23.24-96.46,154.02-96.46,154.02,12.3,127.75,131.39,126.08,131.39,126.08,108.15,4.25,118.94-85.82,118.94-85.82l-62.13-4.71c-15.65,34.94-51.95,33.57-51.95,33.57-65.77,3.65-68.81-72.76-68.81-72.76h187.59c3.8-32.96-9.57-80.35-9.57-80.35ZM392.5,458.21s4.25-55.6,58.03-56.81c60.61-1.52,59.39,56.81,59.39,56.81h-117.42Z"/>
</svg>