<?xml version="1.0" encoding="UTF-8"?>
<svg id="_Слой_1" data-name="Слой 1" xmlns="http://www.w3.org/2000/svg" viewBox="0 0 595.28 841.89">
  <defs>
    <style>
      .cls-1 {
        fill: #895bfc;
      }
    </style>
  </defs>
  <path class="cls-1" d="M563.27,327.77C488.7,61.85,120.33,58.51,35.53,318.29c-28.64,87.58-12.83,129.61,9.86,212.17,15.06,54.67,18.41,116.97,33.1,172.38l97.07-37.56c226.86,104.88,454.84-98.18,387.71-337.51ZM264.44,543.29c-10.6-2.6-34.96-16.55-40.91-16.74-7.81-.19-37.75,16.55-41.65,12.46-6.51-78.84-46.3-152.3,11.16-222.03,74.2-89.63,216.64-55.79,239.88,58.02,20.83,102.46-64.15,193.02-168.47,168.29Z"/>
</svg>